<?xml version="1.0" encoding="utf-8"?>
<!-- Generator: Adobe Illustrator 22.0.0, SVG Export Plug-In . SVG Version: 6.00 Build 0)  -->
<svg version="1.1" id="Layer_1" xmlns="http://www.w3.org/2000/svg" xmlns:xlink="http://www.w3.org/1999/xlink" x="0px" y="0px"
	 viewBox="0 0 315.8 315.8" style="enable-background:new 0 0 315.8 315.8;" xml:space="preserve">
<style type="text/css">
	.st0{fill:#A3A4A7;}
</style>
<path class="st0" d="M157.9,284.2c-69.6,0-126.3-56.7-126.3-126.3c0-69.6,56.7-126.3,126.3-126.3c69.6,0,126.3,56.7,126.3,126.3
	C284.2,227.5,227.5,284.2,157.9,284.2z M157.9,0C70.7,0,0,70.7,0,157.9s70.7,157.9,157.9,157.9c87.2,0,157.9-70.7,157.9-157.9
	S245,0,157.9,0z M173.7,78.9h-31.6v63.2H78.9v31.6h63.2v63.2h31.6v-63.2h63.2v-31.6h-63.2V78.9z"/>
</svg>
