<?xml version="1.0" encoding="utf-8"?>
<!-- Generator: Adobe Illustrator 22.0.0, SVG Export Plug-In . SVG Version: 6.00 Build 0)  -->
<svg version="1.1" id="Layer_1" xmlns="http://www.w3.org/2000/svg" xmlns:xlink="http://www.w3.org/1999/xlink" x="0px" y="0px"
	 viewBox="0 0 110.7 123" style="enable-background:new 0 0 110.7 123;" xml:space="preserve">
<path d="M24.6,55.4h12.3v12.3H24.6V55.4z M110.7,24.6v86.1c0,6.8-5.5,12.3-12.3,12.3H12.3C5.5,123,0,117.5,0,110.7l0.1-86.1
	c0-6.8,5.4-12.3,12.2-12.3h6.2V0h12.3v12.3H80V0h12.3v12.3h6.2C105.2,12.3,110.7,17.8,110.7,24.6z M12.3,36.9h86.1V24.6H12.3V36.9z
	 M98.4,110.7V49.2H12.3v61.5H98.4z M73.8,67.7h12.3V55.4H73.8V67.7z M49.2,67.7h12.3V55.4H49.2V67.7z"/>
</svg>
