<?xml version="1.0" encoding="utf-8"?>
<!-- Generator: Adobe Illustrator 22.0.0, SVG Export Plug-In . SVG Version: 6.00 Build 0)  -->
<svg version="1.1" id="Layer_1" xmlns="http://www.w3.org/2000/svg" xmlns:xlink="http://www.w3.org/1999/xlink" x="0px" y="0px"
	 viewBox="0 0 315.8 315.8" style="enable-background:new 0 0 315.8 315.8;" xml:space="preserve">
<style type="text/css">
	/*.st0{fill:#A3A4A7;}*/
</style>
<path class="st0" d="M68.6,247.2c-49.2-49.2-49.2-129.4,0-178.6c49.2-49.2,129.4-49.2,178.6,0c49.2,49.2,49.2,129.4,0,178.6
	C198,296.4,117.8,296.4,68.6,247.2z M269.5,46.2c-61.6-61.6-161.7-61.6-223.3,0s-61.6,161.7,0,223.3c61.6,61.6,161.7,61.6,223.3,0
	S331.2,107.9,269.5,46.2z M224.9,113.2l-22.3-22.3l-44.7,44.7l-44.7-44.7l-22.3,22.3l44.7,44.7l-44.7,44.7l22.3,22.3l44.7-44.7
	l44.7,44.7l22.3-22.3l-44.7-44.7L224.9,113.2z"/>
</svg>
