<?xml version="1.0" encoding="utf-8"?>
<!-- Generator: Adobe Illustrator 22.0.0, SVG Export Plug-In . SVG Version: 6.00 Build 0)  -->
<svg version="1.1" id="Layer_1" xmlns="http://www.w3.org/2000/svg" xmlns:xlink="http://www.w3.org/1999/xlink" x="0px" y="0px"
	 viewBox="0 0 282.4 353" style="enable-background:new 0 0 282.4 353;" xml:space="preserve">
<style type="text/css">
	.st0{fill:#2E3192;}
</style>
<g>
	<path class="st0" d="M247.1,300.1c0,10.6-7.1,17.6-17.7,17.6H53c-10.6,0-17.7-7.1-17.7-17.6V52.9c0-10.6,7.1-17.6,17.7-17.6h109.4
		c5.3,0,8.8,1.8,12.4,5.3l67.1,67.1c3.5,3.5,5.3,8.8,5.3,12.4V300.1z M266.5,83l-67.1-67.1C188.9,5.3,176.5,0,162.4,0H53
		C22.9,0,0,22.9,0,52.9v247.1c0,30,22.9,52.9,53,52.9h176.5c30,0,53-22.9,53-52.9V120C282.4,105.9,277.1,93.5,266.5,83z"/>
	<path class="st0" d="M194.1,247.1H88.2c-10.6,0-17.7,7.1-17.7,17.6s7.1,17.7,17.7,17.7h105.9c10.6,0,17.6-7.1,17.6-17.7
		S204.7,247.1,194.1,247.1z"/>
	<path class="st0" d="M194.1,158.9H88.2c-10.6,0-17.7,7.1-17.7,17.6s7.1,17.7,17.7,17.7h105.9c10.6,0,17.6-7.1,17.6-17.7
		S204.7,158.9,194.1,158.9z"/>
	<path class="st0" d="M88.2,105.9h70.6c10.6,0,17.7-7.1,17.7-17.7s-7.1-17.6-17.7-17.6H88.2c-10.6,0-17.7,7.1-17.7,17.6
		S77.7,105.9,88.2,105.9z"/>
</g>
</svg>
