<?xml version="1.0" encoding="utf-8"?>
<!-- Generator: Adobe Illustrator 21.1.0, SVG Export Plug-In . SVG Version: 6.00 Build 0)  -->
<svg version="1.1" id="Layer_1" xmlns="http://www.w3.org/2000/svg" xmlns:xlink="http://www.w3.org/1999/xlink" x="0px" y="0px"
	 viewBox="0 0 142 140.9" style="enable-background:new 0 0 142 140.9;" xml:space="preserve">
<style type="text/css">
	.st0{fill:#FFFFFF;}
</style>
<g>
	<g>
		<path class="st0" d="M140.4,69.9h-0.5c0,0.2,0,0.3,0,0.5s0,0.3,0,0.5c-0.2,38.4-31.6,69.4-70,69.2c-38.4-0.2-69.4-31.6-69.2-70
			s31.6-69.4,70-69.2c17.8,0.1,34.9,7,47.8,19.4c0.1,0.1,0.2,0.2,0.3,0.3l0.7,0.7l0.4-0.4l-0.7-0.7l-0.3-0.3
			C91-6.9,46.7-6,19.9,21.9s-25.9,72.2,2,99s72.2,25.9,99-2c12.4-12.9,19.4-30.1,19.5-48c0-0.2,0-0.3,0-0.5S140.4,70.1,140.4,69.9z
			 M70.4,120.4c-27.6,0-50-22.4-50-50s22.4-50,50-50c12.9,0,25.3,5,34.6,13.9l0.2,0.2c0.3,0.2,0.5,0.5,0.7,0.7l0.3-0.3
			c-0.2-0.2-0.5-0.5-0.7-0.7l-0.2-0.2C85.2,14.7,53.2,15.4,34,35.6S15.4,87.7,35.6,107s52.1,18.5,71.4-1.6
			c8.9-9.3,13.9-21.6,14-34.4c0-0.2,0-0.3,0-0.5s0-0.3,0-0.5h-0.5c0,0.2,0,0.3,0,0.5s0,0.3,0,0.5C120.1,98.3,97.8,120.4,70.4,120.4
			L70.4,120.4z"/>
		<path class="st0" d="M139.9,69.9c0,0.2,0,0.3,0,0.5s0,0.3,0,0.5c-0.2,38.4-31.6,69.4-70,69.2c-38.4-0.2-69.4-31.6-69.2-70
			s31.6-69.4,70-69.2c17.8,0.1,34.9,7,47.8,19.4c0.1,0.1,0.2,0.2,0.3,0.3l0.7,0.7l0.7-0.7l-0.7-0.7c-0.1-0.1-0.2-0.2-0.3-0.3l9.7-10
			L142,55.5L95.7,43.9l8.9-9.2l0.2,0.2c0.2,0.2,0.5,0.5,0.7,0.7l0.4-0.4l0.3-0.3c-0.2-0.2-0.5-0.5-0.7-0.7l-0.2-0.2
			C85.2,14.7,53.2,15.4,34,35.6s-18.5,52.1,1.6,71.4s52.1,18.5,71.4-1.6c8.9-9.3,13.9-21.6,14-34.4c0-0.2,0-0.3,0-0.5s0-0.3,0-0.5
			H139.9z"/>
		<path class="st0" d="M120.9,69.9h-1c0,0.2,0,0.3,0,0.5s0,0.3,0,0.5c-0.2,27.4-22.6,49.4-50,49.1s-49.4-22.6-49.1-50
			c0.2-27.4,22.6-49.4,50-49.1c12.6,0.1,24.7,5,33.9,13.8l0.2,0.2c0.2,0.2,0.5,0.5,0.7,0.7l0.4-0.4l0.3-0.3
			c-0.2-0.2-0.5-0.5-0.7-0.7l-0.2-0.2C85.2,14.7,53.2,15.4,34,35.6s-18.5,52.1,1.6,71.4s52.1,18.5,71.4-1.6
			c8.9-9.3,13.9-21.6,14-34.4c0-0.2,0-0.3,0-0.5S120.9,70.1,120.9,69.9z M120.9,69.9h-1c0,0.2,0,0.3,0,0.5s0,0.3,0,0.5
			c-0.2,27.4-22.6,49.4-50,49.1s-49.4-22.6-49.1-50c0.2-27.4,22.6-49.4,50-49.1c12.6,0.1,24.7,5,33.9,13.8l0.2,0.2
			c0.2,0.2,0.5,0.5,0.7,0.7l0.4-0.4l0.3-0.3c-0.2-0.2-0.5-0.5-0.7-0.7l-0.2-0.2C85.2,14.7,53.2,15.4,34,35.6s-18.5,52.1,1.6,71.4
			s52.1,18.5,71.4-1.6c8.9-9.3,13.9-21.6,14-34.4c0-0.2,0-0.3,0-0.5S120.9,70.1,120.9,69.9z M120.9,69.9h-1c0,0.2,0,0.3,0,0.5
			s0,0.3,0,0.5c-0.2,27.4-22.6,49.4-50,49.1s-49.4-22.6-49.1-50c0.2-27.4,22.6-49.4,50-49.1c12.6,0.1,24.7,5,33.9,13.8l0.2,0.2
			c0.2,0.2,0.5,0.5,0.7,0.7l0.4-0.4l0.3-0.3c-0.2-0.2-0.5-0.5-0.7-0.7l-0.2-0.2C85.2,14.7,53.2,15.4,34,35.6s-18.5,52.1,1.6,71.4
			s52.1,18.5,71.4-1.6c8.9-9.3,13.9-21.6,14-34.4c0-0.2,0-0.3,0-0.5S120.9,70.1,120.9,69.9z M140.9,69.9h-1c0,0.2,0,0.3,0,0.5
			s0,0.3,0,0.5c-0.2,38.4-31.6,69.4-70,69.2c-38.4-0.2-69.4-31.6-69.2-70s31.6-69.4,70-69.2c17.8,0.1,34.9,7,47.8,19.4
			c0.1,0.1,0.2,0.2,0.3,0.3l0.7,0.7l0.7-0.7l-0.7-0.7c-0.1-0.1-0.2-0.2-0.3-0.3c-28.1-26.9-72.7-26-99.6,2.1s-26,72.7,2.1,99.6
			s72.7,26,99.6-2.1c12.5-13,19.5-30.3,19.6-48.3c0-0.2,0-0.3,0-0.5S140.9,70.1,140.9,69.9z M120.9,69.9h-1c0,0.2,0,0.3,0,0.5
			s0,0.3,0,0.5c-0.2,27.4-22.6,49.4-50,49.1s-49.4-22.6-49.1-50c0.2-27.4,22.6-49.4,50-49.1c12.6,0.1,24.7,5,33.9,13.8l0.2,0.2
			c0.2,0.2,0.5,0.5,0.7,0.7l0.4-0.4l0.3-0.3c-0.2-0.2-0.5-0.5-0.7-0.7l-0.2-0.2C85.2,14.7,53.2,15.4,34,35.6s-18.5,52.1,1.6,71.4
			s52.1,18.5,71.4-1.6c8.9-9.3,13.9-21.6,14-34.4c0-0.2,0-0.3,0-0.5S120.9,70.1,120.9,69.9z M120.9,69.9h-1c0,0.2,0,0.3,0,0.5
			s0,0.3,0,0.5c-0.2,27.4-22.6,49.4-50,49.1s-49.4-22.6-49.1-50c0.2-27.4,22.6-49.4,50-49.1c12.6,0.1,24.7,5,33.9,13.8l0.2,0.2
			c0.2,0.2,0.5,0.5,0.7,0.7l0.4-0.4l0.3-0.3c-0.2-0.2-0.5-0.5-0.7-0.7l-0.2-0.2C85.2,14.7,53.2,15.4,34,35.6s-18.5,52.1,1.6,71.4
			s52.1,18.5,71.4-1.6c8.9-9.3,13.9-21.6,14-34.4c0-0.2,0-0.3,0-0.5S120.9,70.1,120.9,69.9z"/>
		<path class="st0" d="M105.5,34.1l0.3,0.2c0.3,0.3,0.4,0.6,0.3,0.7l-0.3,0.3c-0.1,0.1-0.4,0-0.7-0.3l-0.2-0.2l-0.1,0
			c-0.1-0.1,0-0.2,0.1-0.3l0.3-0.4C105.2,34,105.4,34,105.5,34.1L105.5,34.1z"/>
		<path class="st0" d="M119.8,20.1c0.3,0.1,0.3,0.5,0.2,0.7c-0.1,0.3-0.5,0.3-0.7,0.2c-0.1,0-0.2-0.1-0.2-0.2l-0.2-0.2l-0.1-0.1
			c-0.1-0.1-0.1-0.3,0-0.4c0,0,0,0,0,0c0.1-0.1,0.3-0.3,0.3-0.4c0.1-0.1,0.3-0.1,0.4,0l0.1,0.1L119.8,20.1z"/>
	</g>
</g>
</svg>
