<svg id="Layer_1" xmlns="http://www.w3.org/2000/svg" xmlns:xlink="http://www.w3.org/1999/xlink" width="20" height="20" viewBox="0 0 20 20">
  <defs>
    <clipPath id="clip-path">
      <rect id="Rectangle_2087" data-name="Rectangle 2087" width="20" height="20" transform="translate(37 327)" stroke="#707070" stroke-width="1"/>
    </clipPath>
  </defs>
  <g id="Mask_Group_130" data-name="Mask Group 130" transform="translate(-37 -327)" clip-path="url(#clip-path)">
    <g id="message" transform="translate(37 327.072)">
      <path id="Path_3523" data-name="Path 3523" d="M19.955,7.754,18.118,3.318V.595a.59.59,0,0,0-.59-.59H2.472a.59.59,0,0,0-.59.59V3.318L.045,7.754A.588.588,0,0,0,0,7.98V19.261a.59.59,0,0,0,.59.59H19.41a.59.59,0,0,0,.59-.59V7.984A.589.589,0,0,0,19.955,7.754Zm-1.312-.085-.525.227V6.4ZM3.061,1.185H16.939V8.406L9.7,11.533,3.061,8.476ZM1.882,6.4V7.93l-.531-.247ZM18.821,18.672H1.179V8.9l8.234,3.824a.688.688,0,0,0,.284.053.813.813,0,0,0,.268-.047l8.856-3.857Zm0,0"/>
      <path id="Path_3524" data-name="Path 3524" d="M9.18,7.511a.59.59,0,0,0,.8.042L11.67,6.141a.59.59,0,1,0-.756-.9L9.645,6.3l-.513-.528a.59.59,0,1,0-.846.822Zm0,0" />
      <path id="Path_3525" data-name="Path 3525" d="M10,10.019A3.625,3.625,0,1,0,6.375,6.394,3.629,3.629,0,0,0,10,10.019Zm0-6.071A2.446,2.446,0,1,1,7.554,6.394,2.449,2.449,0,0,1,10,3.948Zm0,0"/>
    </g>
  </g>
</svg>
