<?xml version="1.0" encoding="utf-8"?>
<!-- Generator: Adobe Illustrator 21.1.0, SVG Export Plug-In . SVG Version: 6.00 Build 0)  -->
<svg version="1.1" id="Layer_1" xmlns="http://www.w3.org/2000/svg" xmlns:xlink="http://www.w3.org/1999/xlink" x="0px" y="0px"
	 viewBox="0 0 75.6 75.6" style="enable-background:new 0 0 75.6 75.6;" xml:space="preserve">
<style type="text/css">
	.st0{fill:#FFFFFF;}
</style>
<path class="st0" d="M37.8,0C17,0,0,17,0,37.8s17,37.8,37.8,37.8s37.8-16.9,37.8-37.8S58.6,0,37.8,0z M41.8,67.3V38.2l10.9,9.4
	l5.2-6.1L37.8,24.3L17.7,41.5l5.2,6.1l10.9-9.4v29.1C19.3,65.4,8,52.8,8,37.8C8,21.4,21.4,8,37.8,8s29.8,13.3,29.8,29.8
	C67.6,52.9,56.3,65.4,41.8,67.3z"/>
</svg>
