<?xml version="1.0" encoding="utf-8"?>
<!-- Generator: Adobe Illustrator 22.0.0, SVG Export Plug-In . SVG Version: 6.00 Build 0)  -->
<svg version="1.1" id="Layer_1" xmlns="http://www.w3.org/2000/svg" xmlns:xlink="http://www.w3.org/1999/xlink" x="0px" y="0px"
	 viewBox="0 0 75.6 75.6" style="enable-background:new 0 0 75.6 75.6;" xml:space="preserve">
<style type="text/css">
	.st0{fill:#FFFFFF;}
</style>
<path class="st0" d="M37.8,75.6c20.8,0,37.8-17,37.8-37.8S58.6,0,37.8,0S0,16.9,0,37.8S17,75.6,37.8,75.6z M33.8,8.3v29.1L22.9,28
	l-5.2,6.1l20.1,17.2l20.1-17.2L52.7,28l-10.9,9.4V8.3c14.5,1.9,25.8,14.5,25.8,29.5c0,16.4-13.4,29.8-29.8,29.8S8,54.3,8,37.8
	C8,22.7,19.3,10.2,33.8,8.3z"/>
</svg>
