<?xml version="1.0" encoding="utf-8"?>
<!-- Generator: Adobe Illustrator 22.0.0, SVG Export Plug-In . SVG Version: 6.00 Build 0)  -->
<svg version="1.1" id="Layer_1" xmlns="http://www.w3.org/2000/svg" xmlns:xlink="http://www.w3.org/1999/xlink" x="0px" y="0px"
	 viewBox="0 0 65 81" style="enable-background:new 0 0 65 81;" xml:space="preserve">
<path d="M53.5,0H22.7L0,22.5v47C0,75.8,5.2,81,11.5,81h42C59.8,81,65,75.8,65,69.5v-58C65,5.2,59.8,0,53.5,0z M58,69.5
	c0,2.5-2,4.5-4.5,4.5h-42C9,74,7,72,7,69.5V25.4L25.6,7h27.9C56,7,58,9,58,11.5V69.5z M36,31.3h-7v8.9h-8.9v7H29v8.9h7v-8.9h8.9v-7
	H36V31.3z"/>
</svg>
