<?xml version="1.0" encoding="utf-8"?>
<!-- Generator: Adobe Illustrator 21.1.0, SVG Export Plug-In . SVG Version: 6.00 Build 0)  -->
<svg version="1.1" id="Layer_1" xmlns="http://www.w3.org/2000/svg" xmlns:xlink="http://www.w3.org/1999/xlink" x="0px" y="0px"
	 viewBox="0 0 68 64" style="enable-background:new 0 0 68 64;" xml:space="preserve">
<path d="M36,16v10h18c1.1,0,2,0.9,2,2v9.2l1.6-1.6c0.8-0.8,2-0.8,2.8,0c0.8,0.8,0.8,2,0,2.8l-5,5c-0.8,0.8-2,0.8-2.8,0l-5-5
	c-0.8-0.8-0.8-2,0-2.8c0.8-0.8,2-0.8,2.8,0l1.6,1.6V30H16v7.2l1.6-1.6c0.8-0.8,2-0.8,2.8,0c0.8,0.8,0.8,2,0,2.8l-5,5
	c-0.8,0.8-2,0.8-2.8,0l-5-5c-0.8-0.8-0.8-2,0-2.8c0.8-0.8,2-0.8,2.8,0l1.6,1.6V28c0-1.1,0.9-2,2-2h18V16H22c-1.1,0-2-0.9-2-2V2
	c0-1.1,0.9-2,2-2h24c1.1,0,2,0.9,2,2v12c0,1.1-0.9,2-2,2H36L36,16z M24,12h20V4H24V12z M2,48h24c1.1,0,2,0.9,2,2v12c0,1.1-0.9,2-2,2
	H2c-1.1,0-2-0.9-2-2V50C0,48.9,0.9,48,2,48z M4,60h20v-8H4V60z M42,48h24c1.1,0,2,0.9,2,2v12c0,1.1-0.9,2-2,2H42c-1.1,0-2-0.9-2-2
	V50C40,48.9,40.9,48,42,48z M44,60h20v-8H44V60z"/>
</svg>
