<svg id="Layer_1" xmlns="http://www.w3.org/2000/svg" xmlns:xlink="http://www.w3.org/1999/xlink" width="20" height="20" viewBox="0 0 20 20">
  <defs>
    <clipPath id="clip-path">
      <rect id="Rectangle_2106" data-name="Rectangle 2106" width="20" height="20" transform="translate(38 820)"  stroke="#707070" stroke-width="1"/>
    </clipPath>
  </defs>
  <g id="Mask_Group_141" data-name="Mask Group 141" transform="translate(-38 -820)" clip-path="url(#clip-path)">
    <g id="XMLID_1_" transform="translate(38 819.925)">
      <path id="Path_3541" data-name="Path 3541" d="M11.667,7.575l7.342,1.458A1.231,1.231,0,0,1,20,10.25v8.5A1.248,1.248,0,0,1,18.75,20h-7.5a.413.413,0,0,0,.417-.417v-.417H18.75a.418.418,0,0,0,.417-.417v-8.5a.419.419,0,0,0-.325-.408L11.667,8.425Z" />
      <path id="Path_3542" data-name="Path 3542" d="M16.25,11.667a.417.417,0,0,1,0,.833H14.583a.417.417,0,1,1,0-.833Z" />
      <path id="Path_3543" data-name="Path 3543" d="M16.25,14.167a.417.417,0,0,1,0,.833H14.583a.417.417,0,1,1,0-.833Z" />
      <path id="Path_3544" data-name="Path 3544" d="M16.25,16.667a.417.417,0,0,1,0,.833H14.583a.417.417,0,1,1,0-.833Z" />
      <path id="Path_3545" data-name="Path 3545" d="M11.667,19.583a.417.417,0,0,1-.833,0V7.917a.443.443,0,0,1,.15-.325.438.438,0,0,1,.35-.083l.333.067V19.583Z" />
      <path id="Path_3546" data-name="Path 3546" d="M10.833,19.167v.417A.413.413,0,0,0,11.25,20H7.917a.413.413,0,0,0,.417-.417v-.417Z"/>
      <path id="Path_3547" data-name="Path 3547" d="M8.75,4.167A.417.417,0,1,1,8.75,5H7.083a.417.417,0,0,1,0-.833Z" />
      <path id="Path_3548" data-name="Path 3548" d="M9.167,7.083A.413.413,0,0,1,8.75,7.5H7.083a.417.417,0,0,1,0-.833H8.75A.413.413,0,0,1,9.167,7.083Z" />
      <path id="Path_3549" data-name="Path 3549" d="M8.75,9.167a.417.417,0,1,1,0,.833H7.083a.417.417,0,1,1,0-.833Z"/>
      <path id="Path_3550" data-name="Path 3550" d="M8.75,11.667a.417.417,0,1,1,0,.833H7.083a.417.417,0,1,1,0-.833Z" />
      <path id="Path_3551" data-name="Path 3551" d="M5,12.083a.413.413,0,0,1-.417.417H2.917a.417.417,0,1,1,0-.833H4.583A.413.413,0,0,1,5,12.083Z" />
      <path id="Path_3552" data-name="Path 3552" d="M4.583,4.167a.417.417,0,0,1,0,.833H2.917a.417.417,0,1,1,0-.833Z" />
      <path id="Path_3553" data-name="Path 3553" d="M4.583,6.667a.417.417,0,0,1,0,.833H2.917a.417.417,0,1,1,0-.833Z" />
      <path id="Path_3554" data-name="Path 3554" d="M4.583,9.167a.417.417,0,1,1,0,.833H2.917a.417.417,0,1,1,0-.833Z" />
      <path id="Path_3555" data-name="Path 3555" d="M7.5,15.417A.418.418,0,0,0,7.083,15h-2.5a.413.413,0,0,0-.417.417v3.75H3.333v-3.75a1.248,1.248,0,0,1,1.25-1.25h2.5a1.248,1.248,0,0,1,1.25,1.25v3.75H7.5Z" />
      <path id="Path_3556" data-name="Path 3556" d="M4.167,19.167H8.333v.417A.413.413,0,0,1,7.917,20H3.75a.413.413,0,0,1-.417-.417v-.417Z" />
      <path id="Path_3557" data-name="Path 3557" d="M1.458.167l9.158,1.392a1.245,1.245,0,0,1,1.05,1.233V7.575l-.333-.067a.438.438,0,0,0-.35.083.443.443,0,0,0-.15.325V2.792a.421.421,0,0,0-.35-.417L1.325.992A.231.231,0,0,0,1.25.983a.393.393,0,0,0-.267.1.4.4,0,0,0-.15.317V18.75a.418.418,0,0,0,.417.417H3.333v.417A.413.413,0,0,0,3.75,20H1.25A1.248,1.248,0,0,1,0,18.75V1.4A1.227,1.227,0,0,1,.442.45,1.251,1.251,0,0,1,1.458.167Z" />
    </g>
  </g>
</svg>
