<svg id="Layer_1" xmlns="http://www.w3.org/2000/svg" viewBox="0 0 790 802">
  <g id="Group_3837" data-name="Group 3837" transform="translate(-107 -163)">
    <g id="Group_3836" data-name="Group 3836">
      <path id="Path_22332" data-name="Path 22332" d="M.717,174.248l200.5-47.053L230.719,90.32l22.414-.391,8-6.643,9.235-6.92,221.024,9.4-1.212-69.438L269.1,3.732,251.972,23.423l-23,.4L200.26,72.589-.1,127.26Z" transform="matrix(1, 0.017, -0.017, 1, 324.576, 435.572)" fill="rgba(255,176,57,0.49)" stroke="#2c2738" stroke-linejoin="round" stroke-width="4"/>
      <path id="Path_22413" data-name="Path 22413" d="M-4589.171-14480.66l-223.91,10.94-17.192-10.94-21.1,3.126-33.447-21.84-197.769-19.563v-50.51l208.8,11.738,22.42,7.105h22.75l8.537,2.135,230.915-2.135Z" transform="translate(5405 15384)" fill="rgba(255,176,57,0.5)" stroke="#2c2738" stroke-width="4"/>
      <path id="Path_22414" data-name="Path 22414" d="M-4591.3-14529.371H-4814.47l-15.028-7.214h-22.843l-30.658-11.422-200.177-10.219v-48.691l207.391,3.606H-4591.3Z" transform="translate(5406 15383)" fill="rgba(255,176,57,0.5)" stroke="#2c2738" stroke-width="4"/>
      <path id="Path_22415" data-name="Path 22415" d="M-4591.3-14587.638h-230.244l-8.324-2.312-254.788-3.7v-50.4l207.16-4.162,24.045-6.474h262.15Z" transform="translate(5406 15383)" fill="rgba(255,176,57,0.5)" stroke="#2c2738" stroke-width="4"/>
      <path id="Path_22416" data-name="Path 22416" d="M-4591.3-14640.357h-268.164l-19.884,5.549-206.234,3.7v-48.091l206.234-12.947,19.884-9.248H-4591.3Z" transform="translate(5406 15383)" fill="rgba(255,176,57,0.5)" stroke="#2c2738" stroke-width="4"/>
      <path id="Path_22417" data-name="Path 22417" d="M-4591.3-14693.072h-262.152l-27.745,12.947-203.922,12.023v-46.7l203.922-22.658,23.121-15.722,266.776,2.774Z" transform="translate(5406 15383)" fill="rgba(255,176,57,0.5)" stroke="#2c2738" stroke-width="4"/>
      <path id="Path_22418" data-name="Path 22418" d="M-4591.3-14744.862h-263.54l-27.745,20.347-202.073,21.271,2.312-44.392,199.761-34.681,27.745-24.045,263.54,3.236Z" transform="translate(5406 15383)" fill="rgba(255,176,57,0.5)" stroke="#2c2738" stroke-width="4"/>
      <path id="Path_22419" data-name="Path 22419" d="M-4591.3-14798.047h-261.692l-28.669,27.282-202.073,32.368v-45.778l202.073-43,31.444-38.381,258.918,7.4Z" transform="translate(5406 15383)" fill="rgba(255,176,57,0.5)" stroke="#2c2738" stroke-width="4"/>
      <path id="Path_22420" data-name="Path 22420" d="M-4591.3-14909.9l-222.572-12.624-67.928,64.321-201.98,49.895v-49.895l201.98-57.107,33.664-56.507,256.837,10.22Z" transform="translate(5406 15383)" fill="rgba(255,176,57,0.5)" stroke="#2c2738" stroke-width="4"/>
    </g>
    <rect id="Rectangle_10779" data-name="Rectangle 10779" transform="translate(107 163)" fill="none"/>
  </g>
</svg>
