<svg id="Layer_1" xmlns="http://www.w3.org/2000/svg" xmlns:xlink="http://www.w3.org/1999/xlink" viewBox="0 0 24 24">
  <defs>
    <style>
      .a,.c{fill:#708298;}.a{stroke:#707070;}.b{clip-path:url(#a);}
    </style>
    <clipPath id="a">
      <rect class="a" width="24" height="24" transform="translate(270 397)" />
    </clipPath>
  </defs>
  <g class="b" transform="translate(-270 -397)">
    <g transform="translate(270 398.172)">
      <path class="c" d="M23.578,14.689V4.684a2.112,2.112,0,0,0-2.109-2.109H18.7v-.8a.7.7,0,0,0-1.406,0v.8H12.7v-.8a.7.7,0,0,0-1.406,0v.8H6.7v-.8a.7.7,0,0,0-1.406,0v.8H2.109A2.112,2.112,0,0,0,0,4.684V17.621A2.112,2.112,0,0,0,2.109,19.73H13.028a5.858,5.858,0,0,0,10.55-5.042Zm-4.734-2.215a4.464,4.464,0,0,1,3.694,3.694H18.844ZM2.109,18.324a.7.7,0,0,1-.7-.7V4.684a.7.7,0,0,1,.7-.7H5.3v.844a.7.7,0,0,0,1.406,0V3.98H11.3v.844a.7.7,0,0,0,1.406,0V3.98H17.3v.844a.7.7,0,0,0,1.406,0V3.98h2.766a.7.7,0,0,1,.7.7v7.939a5.859,5.859,0,0,0-9.708,5.7Zm16.031,3a4.453,4.453,0,0,1-.7-8.851v4.4a.7.7,0,0,0,.7.7h4.4A4.46,4.46,0,0,1,18.141,21.324Z" transform="translate(0 -1.074)" />
      <path class="c" d="M4.621,7.949H3.5a.7.7,0,0,0,0,1.406H4.621a.7.7,0,0,0,0-1.406Z" transform="translate(0.254 -0.449)" />
      <path class="c" d="M8.4,7.949H7.277a.7.7,0,0,0,0,1.406H8.4a.7.7,0,0,0,0-1.406Z" transform="translate(0.598 -0.449)" />
      <path class="c" d="M8.4,10.7H7.277a.7.7,0,0,0,0,1.406H8.4a.7.7,0,0,0,0-1.406Z" transform="translate(0.598 -0.199)" />
      <path class="c" d="M4.621,10.7H3.5a.7.7,0,0,0,0,1.406H4.621a.7.7,0,0,0,0-1.406Z" transform="translate(0.254 -0.199)" />
      <path class="c" d="M4.621,13.449H3.5a.7.7,0,0,0,0,1.406H4.621a.7.7,0,0,0,0-1.406Z" transform="translate(0.254 0.051)" />
      <path class="c" d="M8.4,13.449H7.277a.7.7,0,0,0,0,1.406H8.4a.7.7,0,0,0,0-1.406Z" transform="translate(0.598 0.051)" />
    </g>
  </g>
</svg>
