<svg xmlns="http://www.w3.org/2000/svg" width="36" height="32" viewBox="0 0 36 32">
  <path id="Mask" d="M1.8,32A1.788,1.788,0,0,1,0,30.222V17.778A1.788,1.788,0,0,1,1.8,16a1.788,1.788,0,0,1,1.8,1.778V28.445H32.4V17.778a1.8,1.8,0,0,1,3.6,0V30.222A1.788,1.788,0,0,1,34.2,32Zm14.927-9.41-7.2-7.11a1.763,1.763,0,0,1,0-2.515,1.815,1.815,0,0,1,2.545,0L16.2,17.042V1.774a1.8,1.8,0,0,1,3.6,0V17.042l4.128-4.077a1.815,1.815,0,0,1,2.545,0,1.763,1.763,0,0,1,0,2.515l-7.2,7.11a1.817,1.817,0,0,1-2.547,0Z" fill="#f6f6f9"/>
</svg>
