<svg id="Layer_1" viewBox="0 0 512 512" xmlns="http://www.w3.org/2000/svg">
  <path d="m466 80h-364c-17.113 0-32.702 9.402-40.683 24.537-4.122 7.816-1.126 17.494 6.69 21.616 7.815 4.122 17.494 1.127 21.616-6.69 2.427-4.603 7.17-7.463 12.377-7.463h18v50.752c-7.218 2.56-13.642 6.801-18.81 12.25-4.327-3.979-8.937-7.578-13.301-10.676-6.716-4.768-30.018-20.326-47.889-20.326-8.539 0-24.252 3.585-33.548 27.596-4.04 10.434-6.452 24.043-6.452 36.404s2.412 25.97 6.452 36.404c9.296 24.011 25.009 27.596 33.548 27.596 17.871 0 41.173-15.558 47.89-20.326 4.363-3.098 8.974-6.697 13.301-10.676 5.168 5.449 11.592 9.69 18.81 12.25v146.752h-18c-7.72 0-14-6.28-14-14v-82c0-8.836-7.164-16-16-16s-16 7.164-16 16v82c0 25.364 20.636 46 46 46h364c25.364 0 46-20.636 46-46v-260c-.001-25.364-20.637-46-46.001-46zm-398.864 147.127c-12.791 8.67-23.368 12.526-26.749 12.851-3.482-2.649-8.387-16.713-8.387-31.978 0-15.264 4.905-29.328 8.387-31.978 3.386.326 13.961 4.182 26.749 12.85 12.675 8.592 18.855 15.936 20.544 19.128-1.689 3.192-7.869 10.536-20.544 19.127zm398.864-115.127c7.72 0 14 6.28 14 14v66h-209.237c-1.096-7.292-2.882-14.378-5.215-20.404-9.296-24.011-25.009-27.596-33.548-27.596-17.871 0-41.173 15.558-47.89 20.326-4.363 3.098-8.974 6.697-13.301 10.676-5.168-5.449-11.592-9.69-18.81-12.25v-50.752zm-226 96c0 15.264-4.905 29.328-8.387 31.978-3.386-.326-13.961-4.182-26.749-12.85-12.675-8.591-18.855-15.935-20.544-19.127 1.689-3.192 7.869-10.536 20.544-19.127 12.791-8.67 23.368-12.526 26.749-12.851 3.482 2.648 8.387 16.712 8.387 31.977zm-104-16c8.822 0 16 7.178 16 16s-7.178 16-16 16-16-7.178-16-16 7.178-16 16-16zm330 208h-314v-146.752c7.218-2.56 13.642-6.801 18.81-12.25 4.327 3.979 8.937 7.578 13.301 10.676 6.716 4.768 30.018 20.326 47.889 20.326 8.539 0 24.252-3.585 33.548-27.596 2.333-6.026 4.119-13.112 5.215-20.404h209.237v162c0 7.72-6.28 14-14 14z"/>
</svg>
