<svg id="Layer_1" xmlns="http://www.w3.org/2000/svg" viewBox="0 0 17.981 24.723">
  <path id="Mask" d="M3.33,18.783C1.308,15.217,0,11.446,0,9.172A9.093,9.093,0,0,1,8.99,0a9.093,9.093,0,0,1,8.991,9.172c0,2.274-1.308,6.045-3.331,9.611-1.629,2.871-3.972,5.94-5.66,5.94S4.96,21.654,3.33,18.783ZM2.248,9.172c0,1.822,1.157,5.095,2.947,8.337,1.518,2.751,3.319,4.966,3.8,4.966s2.277-2.215,3.8-4.966c1.79-3.243,2.947-6.515,2.947-8.337A6.844,6.844,0,0,0,8.99,2.248,6.843,6.843,0,0,0,2.248,9.172ZM4.495,8.99a4.5,4.5,0,1,1,4.5,4.495A4.5,4.5,0,0,1,4.495,8.99Z" fill="#eeeaea"/>
</svg>
