<svg id="Layer_1" xmlns="http://www.w3.org/2000/svg" viewBox="0 0 24.2 32.268">
  <path id="phone-volume" d="M6.134,31.95a20.941,20.941,0,0,1,0-29.616,1.083,1.083,0,0,1,1.34-.153l4.085,2.553a1.083,1.083,0,0,1,.432,1.321L9.948,11.161a1.083,1.083,0,0,1-1.114.676l-3.517-.352a16.741,16.741,0,0,0,0,11.313l3.517-.352a1.083,1.083,0,0,1,1.114.676l2.042,5.106a1.083,1.083,0,0,1-.432,1.321L7.474,32.1a1.083,1.083,0,0,1-1.34-.153Zm9.44-25.933a4.037,4.037,0,0,1,0,4.1.76.76,0,0,1-1.18.163l-.377-.361a.762.762,0,0,1-.142-.908,2.021,2.021,0,0,0,0-1.887.762.762,0,0,1,.142-.908l.377-.361A.76.76,0,0,1,15.574,6.017ZM21.359.27a12.117,12.117,0,0,1,0,15.593.759.759,0,0,1-1.106.059l-.365-.35a.758.758,0,0,1-.059-1.032,10.1,10.1,0,0,0,0-12.946A.758.758,0,0,1,19.887.562l.365-.35A.759.759,0,0,1,21.359.27ZM18.462,3.1a8.079,8.079,0,0,1,0,9.929.76.76,0,0,1-1.125.082l-.367-.352a.756.756,0,0,1-.081-1,6.058,6.058,0,0,0,0-7.382.756.756,0,0,1,.081-1l.367-.352a.76.76,0,0,1,1.125.082Z"/>
</svg>
