<svg id="Layer_1" xmlns="http://www.w3.org/2000/svg" viewBox="0 0 17.333 17.333">
  <path id="Union_15" data-name="Union 15" d="M1.733,17.333A1.735,1.735,0,0,1,0,15.6V1.733A1.735,1.735,0,0,1,1.733,0H15.6a1.735,1.735,0,0,1,1.733,1.733V15.6A1.735,1.735,0,0,1,15.6,17.333ZM15.6,15.6v-7L13.644,6.48,9.053,12.5a.867.867,0,0,1-1.3.091L6,10.862,2.264,15.6ZM1.733,13.475,5.242,9.028a.866.866,0,0,1,1.289-.08l1.741,1.718,4.618-6.057a.867.867,0,0,1,1.326-.062l1.383,1.5V1.733H1.733ZM3.466,5.2a2.6,2.6,0,1,1,2.6,2.6A2.6,2.6,0,0,1,3.466,5.2Z"/>
</svg>
